<svg width="294" height="553" viewBox="0 0 294 553" fill="none" xmlns="http://www.w3.org/2000/svg">
<rect width="294" height="553" fill="white"/>
<rect x="32" y="31" width="67" height="30" rx="5" fill="#9A2EFE"/>
<path d="M121 36C121 33.2386 123.239 31 126 31H184C186.761 31 189 33.2386 189 36V56C189 58.7614 186.761 61 184 61H126C123.239 61 121 58.7614 121 56V36Z" fill="#9A2EFE" fill-opacity="0.5"/>
<rect x="211" y="31" width="67" height="30" rx="5" fill="#9A2EFE" fill-opacity="0.1"/>
<rect x="32" y="91" width="67" height="30" rx="5" fill="#9A2EFE"/>
<path d="M121 151C121 148.239 123.239 146 126 146H184C186.761 146 189 148.239 189 151V171C189 173.761 186.761 176 184 176H126C123.239 176 121 173.761 121 171V151Z" fill="#CC96FE"/>
<path d="M121 211C121 208.239 123.239 206 126 206H184C186.761 206 189 208.239 189 211V231C189 233.761 186.761 236 184 236H126C123.239 236 121 233.761 121 231V211Z" fill="#9A2EFE"/>
<rect x="32" y="206" width="67" height="30" rx="5" fill="#9A2EFE"/>
<rect x="211" y="206" width="67" height="30" rx="5" fill="#AE58FE" fill-opacity="0.8"/>
<rect x="32" y="261" width="67" height="30" rx="5" fill="#9A2EFE"/>
<path d="M121 326C121 323.239 123.239 321 126 321H184C186.761 321 189 323.239 189 326V346C189 348.761 186.761 351 184 351H126C123.239 351 121 348.761 121 346V326Z" fill="#9A2EFE"/>
<rect x="211" y="321" width="67" height="30" rx="5" fill="#AE58FE"/>
<rect x="32" y="146" width="67" height="30" rx="5" fill="#9A2EFE"/>
<path d="M121 96C121 93.2386 123.239 91 126 91H184C186.761 91 189 93.2386 189 96V116C189 118.761 186.761 121 184 121H126C123.239 121 121 118.761 121 116V96Z" fill="#9A2EFE"/>
<rect x="211" y="91" width="67" height="30" rx="5" fill="#9A2EFE" fill-opacity="0.5"/>
<rect x="32" y="321" width="67" height="30" rx="5" fill="#9A2EFE"/>
<rect x="32" y="381" width="67" height="30" rx="5" fill="#9A2EFE"/>
<path d="M121 386C121 383.239 123.239 381 126 381H184C186.761 381 189 383.239 189 386V406C189 408.761 186.761 411 184 411H126C123.239 411 121 408.761 121 406V386Z" fill="#9A2EFE"/>
<rect x="211" y="381" width="67" height="30" rx="5" fill="#9A2EFE"/>
<rect x="32" y="441" width="67" height="30" rx="5" fill="#9A2EFE"/>
<path d="M121 446C121 443.239 123.239 441 126 441H184C186.761 441 189 443.239 189 446V466C189 468.761 186.761 471 184 471H126C123.239 471 121 468.761 121 466V446Z" fill="#9A2EFE"/>
<rect x="211" y="441" width="67" height="30" rx="5" fill="#9A2EFE"/>
<rect x="32" y="501" width="67" height="30" rx="5" fill="#9A2EFE"/>
<path d="M121 506C121 503.239 123.239 501 126 501H184C186.761 501 189 503.239 189 506V526C189 528.761 186.761 531 184 531H126C123.239 531 121 528.761 121 526V506Z" fill="#9A2EFE"/>
<rect x="211" y="501" width="67" height="30" rx="5" fill="#9A2EFE"/>
<rect x="211" y="146" width="67" height="30" rx="5" fill="#F5EBFF"/>
<path d="M121 266C121 263.239 123.239 261 126 261H184C186.761 261 189 263.239 189 266V286C189 288.761 186.761 291 184 291H126C123.239 291 121 288.761 121 286V266Z" fill="#CC96FE"/>
<rect x="211" y="261" width="67" height="30" rx="5" fill="#F5EBFF"/>
</svg>
